<?xml version="1.0" encoding="utf-8"?>
<!-- Generator: Adobe Illustrator 16.0.0, SVG Export Plug-In . SVG Version: 6.00 Build 0)  -->
<!DOCTYPE svg PUBLIC "-//W3C//DTD SVG 1.1//EN" "http://www.w3.org/Graphics/SVG/1.1/DTD/svg11.dtd">
<svg version="1.1" id="Layer_1" xmlns="http://www.w3.org/2000/svg" xmlns:xlink="http://www.w3.org/1999/xlink" x="0px" y="0px"
	 width="1280px" height="800px" viewBox="0 0 1280 800" enable-background="new 0 0 1280 800" xml:space="preserve">
<g id="Layer_1_1_" opacity="0.9">
	<g>
		<rect x="-554" y="-1" fill="#161616" width="2544" height="805"/>
		<rect x="-554" y="-1" fill="#BE2229" width="2544" height="805"/>
		<g>
			<g>
				<defs>
					<rect id="SVGID_1_" x="-515.316" y="41.306" width="2476.419" height="709.861"/>
				</defs>
				<clipPath id="SVGID_2_">
					<use xlink:href="#SVGID_1_"  overflow="visible"/>
				</clipPath>
				<path clip-path="url(#SVGID_2_)" fill="#BE2229" d="M-1346.398,1467.938h3916.199V-565.328h-3916.199V1467.938z"/>
			</g>
			<g>
				<defs>
					<rect id="SVGID_3_" x="-515.316" y="41.306" width="2476.419" height="709.861"/>
				</defs>
				<clipPath id="SVGID_4_">
					<use xlink:href="#SVGID_3_"  overflow="visible"/>
				</clipPath>
				<path clip-path="url(#SVGID_4_)" fill="#89181F" d="M-797.791,1347.586l25.5-25.514V-437.792l-25.5-25.513V1347.586z
					 M-1222.551,1347.586l25.5-25.514V-437.792l-25.5-25.513V1347.586z M-1010.184,1347.586l25.513-25.514V-437.792l-25.513-25.513
					V1347.586z M2522.475-463.304v1810.89l25.493-25.514V-437.792L2522.475-463.304z M-373.031,1347.586l25.513-25.514V-437.792
					l-25.513-25.513V1347.586z"/>
			</g>
			<g>
				<defs>
					<rect id="SVGID_5_" x="-515.316" y="41.306" width="2476.419" height="709.861"/>
				</defs>
				<clipPath id="SVGID_6_">
					<use xlink:href="#SVGID_5_"  overflow="visible"/>
				</clipPath>
				<path clip-path="url(#SVGID_6_)" fill="#DC1F26" d="M-687.438,1322.072l25.501,25.514v-1810.89l-25.501,25.513V1322.072z
					 M-899.817,1322.072l25.501,25.514v-1810.89l-25.501,25.513V1322.072z M-1112.197,1322.072l25.5,25.514v-1810.89l-25.5,25.513
					V1322.072z M-1324.571,1322.072l25.495,25.514v-1810.89l-25.495,25.513V1322.072z M-475.057,1322.072l25.512,25.514v-1810.89
					l-25.512,25.513V1322.072z M2420.447-437.792v1759.864l25.501,25.514v-1810.89L2420.447-437.792z"/>
			</g>
			<g>
				<defs>
					<rect id="SVGID_7_" x="-515.316" y="41.306" width="2476.419" height="709.861"/>
				</defs>
				<clipPath id="SVGID_8_">
					<use xlink:href="#SVGID_7_"  overflow="visible"/>
				</clipPath>
				<polygon clip-path="url(#SVGID_8_)" fill="#DC1F26" points="1187.812,1322.072 1213.312,1347.586 1213.312,-463.304 
					1187.812,-437.792 				"/>
			</g>
			<g>
				<defs>
					<rect id="SVGID_9_" x="-515.316" y="41.306" width="2476.419" height="709.861"/>
				</defs>
				<clipPath id="SVGID_10_">
					<use xlink:href="#SVGID_9_"  overflow="visible"/>
				</clipPath>
				<polygon clip-path="url(#SVGID_10_)" fill="#89181F" points="1085.787,1347.586 1111.288,1322.072 1111.288,-437.792 
					1085.787,-463.304 				"/>
			</g>
			<g>
				<defs>
					<rect id="SVGID_11_" x="-515.316" y="41.306" width="2476.419" height="709.861"/>
				</defs>
				<clipPath id="SVGID_12_">
					<use xlink:href="#SVGID_11_"  overflow="visible"/>
				</clipPath>
				<polygon clip-path="url(#SVGID_12_)" fill="#DC1F26" points="983.768,1322.072 1009.26,1347.586 1009.26,-463.304 
					983.768,-437.792 				"/>
			</g>
			<g>
				<defs>
					<rect id="SVGID_13_" x="-515.316" y="41.306" width="2476.419" height="709.861"/>
				</defs>
				<clipPath id="SVGID_14_">
					<use xlink:href="#SVGID_13_"  overflow="visible"/>
				</clipPath>
				<polygon clip-path="url(#SVGID_14_)" fill="#89181F" points="881.739,1347.586 907.232,1322.072 907.232,-437.792 
					881.739,-463.304 				"/>
			</g>
			<g>
				<defs>
					<rect id="SVGID_15_" x="-515.316" y="41.306" width="2476.419" height="709.861"/>
				</defs>
				<clipPath id="SVGID_16_">
					<use xlink:href="#SVGID_15_"  overflow="visible"/>
				</clipPath>
				<polygon clip-path="url(#SVGID_16_)" fill="#DC1F26" points="779.713,1322.072 805.214,1347.586 805.214,-463.304 
					779.713,-437.792 				"/>
			</g>
			<g>
				<defs>
					<rect id="SVGID_17_" x="-515.316" y="41.306" width="2476.419" height="709.861"/>
				</defs>
				<clipPath id="SVGID_18_">
					<use xlink:href="#SVGID_17_"  overflow="visible"/>
				</clipPath>
				<polygon clip-path="url(#SVGID_18_)" fill="#89181F" points="677.68,1347.586 703.181,1322.072 703.181,-437.792 
					677.68,-463.304 				"/>
			</g>
			<g>
				<defs>
					<rect id="SVGID_19_" x="-515.316" y="41.306" width="2476.419" height="709.861"/>
				</defs>
				<clipPath id="SVGID_20_">
					<use xlink:href="#SVGID_19_"  overflow="visible"/>
				</clipPath>
				<polygon clip-path="url(#SVGID_20_)" fill="#DC1F26" points="575.666,1322.072 601.16,1347.586 601.16,-463.304 
					575.666,-437.792 				"/>
			</g>
			<g>
				<defs>
					<rect id="SVGID_21_" x="-515.316" y="41.306" width="2476.419" height="709.861"/>
				</defs>
				<clipPath id="SVGID_22_">
					<use xlink:href="#SVGID_21_"  overflow="visible"/>
				</clipPath>
				<polygon clip-path="url(#SVGID_22_)" fill="#89181F" points="473.633,1347.586 499.133,1322.072 499.133,-437.792 
					473.633,-463.304 				"/>
			</g>
			<g>
				<defs>
					<rect id="SVGID_23_" x="-515.316" y="41.306" width="2476.419" height="709.861"/>
				</defs>
				<clipPath id="SVGID_24_">
					<use xlink:href="#SVGID_23_"  overflow="visible"/>
				</clipPath>
				<polygon clip-path="url(#SVGID_24_)" fill="#DC1F26" points="371.612,1322.072 397.113,1347.586 397.113,-463.304 
					371.612,-437.792 				"/>
			</g>
			<g>
				<defs>
					<rect id="SVGID_25_" x="-515.316" y="41.306" width="2476.419" height="709.861"/>
				</defs>
				<clipPath id="SVGID_26_">
					<use xlink:href="#SVGID_25_"  overflow="visible"/>
				</clipPath>
				<polygon clip-path="url(#SVGID_26_)" fill="#89181F" points="269.58,1347.586 295.086,1322.072 295.086,-437.792 
					269.58,-463.304 				"/>
			</g>
			<g>
				<defs>
					<rect id="SVGID_27_" x="-515.316" y="41.306" width="2476.419" height="709.861"/>
				</defs>
				<clipPath id="SVGID_28_">
					<use xlink:href="#SVGID_27_"  overflow="visible"/>
				</clipPath>
				<polygon clip-path="url(#SVGID_28_)" fill="#DC1F26" points="167.559,1322.072 193.06,1347.586 193.06,-463.304 
					167.559,-437.792 				"/>
			</g>
			<g>
				<defs>
					<rect id="SVGID_29_" x="-515.316" y="41.306" width="2476.419" height="709.861"/>
				</defs>
				<clipPath id="SVGID_30_">
					<use xlink:href="#SVGID_29_"  overflow="visible"/>
				</clipPath>
				<polygon clip-path="url(#SVGID_30_)" fill="#89181F" points="65.532,1347.586 91.033,1322.072 91.033,-437.792 65.532,-463.304 
									"/>
			</g>
		</g>
		<polygon fill="none" points="1915.934,561.709 -475.657,561.66 -475.657,262.448 1915.934,262.484 		"/>
		
			<text transform="matrix(1 0 0 1 -290.8662 520.8701)" display="none" fill="#FFFFFF" enable-background="new    " font-family="'CenturyGothic-Bold'" font-size="351.1206">CONTAINED</text>
		
			<rect x="-355.572" y="174.192" display="none" fill="none" stroke="#FFFFFF" stroke-width="4" stroke-miterlimit="10" width="2167.081" height="450.434"/>
		<g>
			<polygon fill="#89181F" points="-13.533,65.356 66.469,65.356 90.513,41.306 -37.578,41.306 			"/>
			<polygon fill="#89181F" points="191.331,65.356 271.333,65.356 295.371,41.306 167.287,41.306 			"/>
			<polygon fill="#89181F" points="394.944,65.356 474.952,65.356 498.991,41.306 370.906,41.306 			"/>
			<polygon points="599.816,65.356 679.817,65.356 703.856,41.306 575.771,41.306 			"/>
			<polygon fill="#89181F" points="599.816,65.356 679.817,65.356 703.856,41.306 575.771,41.306 			"/>
			<polygon points="804.688,65.356 884.684,65.356 908.721,41.306 780.636,41.306 			"/>
			<polygon fill="#89181F" points="804.688,65.356 884.684,65.356 908.721,41.306 780.636,41.306 			"/>
			<polygon points="1009.552,65.356 1089.554,65.356 1113.585,41.306 985.501,41.306 			"/>
			<polygon fill="#89181F" points="1009.552,65.356 1089.554,65.356 1113.585,41.306 985.501,41.306 			"/>
			<polygon points="1214.424,65.356 1294.418,65.356 1318.456,41.306 1190.367,41.306 			"/>
			<polygon fill="#89181F" points="1214.424,65.356 1294.418,65.356 1318.456,41.306 1190.367,41.306 			"/>
		</g>
		<polygon fill="#DC1F26" points="-37.578,751.167 90.513,751.167 66.469,727.116 -13.533,727.116 		"/>
		<polygon fill="#DC1F26" points="167.287,751.167 295.371,751.167 271.333,727.116 191.331,727.116 		"/>
		<polygon fill="#DC1F26" points="370.906,751.167 498.991,751.167 474.952,727.116 394.944,727.116 		"/>
		<polygon fill="#474747" points="575.771,751.167 703.856,751.167 679.817,727.116 599.816,727.116 		"/>
		<polygon fill="#DC1F26" points="575.771,751.167 703.856,751.167 679.817,727.116 599.816,727.116 		"/>
		<polygon fill="#474747" points="780.636,751.167 908.721,751.167 884.684,727.116 804.688,727.116 		"/>
		<polygon fill="#DC1F26" points="780.636,751.167 908.721,751.167 884.684,727.116 804.688,727.116 		"/>
		<polygon fill="#474747" points="985.501,751.167 1113.585,751.167 1089.554,727.116 1009.552,727.116 		"/>
		<polygon fill="#DC1F26" points="985.501,751.167 1113.585,751.167 1089.554,727.116 1009.552,727.116 		"/>
		<polygon fill="#474747" points="1190.367,751.167 1318.456,751.167 1294.418,727.116 1214.424,727.116 		"/>
		<polygon fill="#DC1F26" points="1190.367,751.167 1318.456,751.167 1294.418,727.116 1214.424,727.116 		"/>
	</g>
</g>
<g id="Layer_2" opacity="0.9">
</g>
</svg>
