<?xml version="1.0" encoding="utf-8"?>
<!-- Generator: Adobe Illustrator 16.0.0, SVG Export Plug-In . SVG Version: 6.00 Build 0)  -->
<!DOCTYPE svg PUBLIC "-//W3C//DTD SVG 1.1//EN" "http://www.w3.org/Graphics/SVG/1.1/DTD/svg11.dtd">
<svg version="1.1" id="Layer_1" xmlns="http://www.w3.org/2000/svg" xmlns:xlink="http://www.w3.org/1999/xlink" x="0px" y="0px"
	 width="979.155px" height="974.07px" viewBox="0 0 979.155 974.07" enable-background="new 0 0 979.155 974.07"
	 xml:space="preserve">
<rect x="1.678" y="1.678" display="none" fill="#232323" width="975.798" height="970.713"/>
<g>
	<polygon fill="#FFFFFF" stroke="#232323" stroke-width="3" points="718.76,216.458 642.577,176.453 623.745,173.12 
		626.024,142.895 595.112,146.094 497.619,62.936 397.748,157.822 373.97,157.822 368.962,178.171 358.515,183.073 264.589,201.532 
		315.763,379.576 307.234,441.63 357.011,602.84 395.159,595.947 491.674,746.235 604.737,594.567 659.888,559.409 	"/>
	<polygon fill="#FFFFFF" stroke="#232323" stroke-width="3" points="264.589,201.532 388.265,223.672 354.689,180.172 	"/>
	<polygon fill="#FFFFFF" stroke="#232323" stroke-width="3" points="388.265,223.672 496.577,64.953 398.748,152.821 
		370.97,151.821 368.962,178.172 	"/>
	<polyline fill="#FFFFFF" stroke="#232323" stroke-width="3" points="497.62,62.936 535.797,234.703 626.024,205.532 
		626.024,142.895 591.84,145.304 	"/>
	<polygon fill="#FFFFFF" stroke="#232323" stroke-width="3" points="642.577,173.453 626.024,205.532 535.797,234.702 
		718.76,216.458 	"/>
	<polygon fill="#FFFFFF" stroke="#232323" stroke-width="3" points="718.76,216.458 629.076,351.899 535.795,234.703 	"/>
	<polygon fill="#FFFFFF" stroke="#232323" stroke-width="3" points="388.265,223.672 535.795,234.702 629.077,351.9 	"/>
	<polygon fill="#FFFFFF" stroke="#232323" stroke-width="3" points="264.589,201.532 315.763,379.576 388.265,223.672 	"/>
	<polygon fill="#FFFFFF" stroke="#232323" stroke-width="3" points="388.265,223.672 315.763,379.576 307.234,441.631 
		308.077,447.887 	"/>
	<polyline fill="#FFFFFF" stroke="#232323" stroke-width="3" points="395.16,595.947 308.078,447.887 357.012,602.84 	"/>
	<polygon fill="#FFFFFF" stroke="#232323" stroke-width="3" points="388.265,223.672 308.077,447.887 520.763,295.012 	"/>
	<polygon fill="#FFFFFF" stroke="#232323" stroke-width="3" points="390.867,384.099 512.276,290.554 629.077,351.9 	"/>
	<polygon fill="#FFFFFF" stroke="#232323" stroke-width="3" points="629.077,351.9 491.674,559.409 391.867,385.099 	"/>
	<polygon fill="#FFFFFF" stroke="#232323" stroke-width="3" points="491.674,559.409 308.077,447.888 390.866,384.099 	"/>
	<polygon fill="#FFFFFF" stroke="#232323" stroke-width="3" points="718.76,216.458 682.964,424.977 491.674,559.409 	"/>
	<polygon fill="#FFFFFF" stroke="#232323" stroke-width="3" points="491.674,746.235 395.159,595.947 308.077,447.887 
		491.674,559.409 	"/>
	<polygon fill="#FFFFFF" stroke="#232323" stroke-width="3" points="491.674,559.409 604.737,594.568 491.674,746.235 	"/>
	<polygon fill="#FFFFFF" stroke="#232323" stroke-width="3" points="495.344,558.385 667.977,512.282 659.887,559.409 
		604.737,594.568 494.825,559.947 	"/>
	<polygon fill="#FFFFFF" stroke="#232323" stroke-width="3" points="682.965,424.976 667.977,512.282 491.674,559.409 	"/>
	<path fill="#FFFFFF" stroke="#232323" stroke-width="3" d="M390.866,384.099"/>
</g>
<polygon fill="#FFFFFF" stroke="#232323" stroke-width="3" points="278.077,284.453 95.077,284.453 95.077,274.453 187.077,274.453 
	275.077,274.453 "/>
<polygon fill="#FFFFFF" stroke="#232323" stroke-width="3" points="714.077,284.453 897.077,284.453 897.077,274.453 
	716.077,274.453 "/>
<g display="none">
	<path display="inline" fill="#FFFFFF" d="M290.026,843.013h30.469v7.363h-11.68v39.609h-7.109v-39.609h-11.68V843.013z"/>
	<path display="inline" fill="#FFFFFF" d="M328.112,843.013h7.109v46.973h-7.109V843.013z"/>
	<path display="inline" fill="#FFFFFF" d="M342.838,843.013h30.469v7.363h-11.68v39.355h-7.109v-39.355h-11.68V843.013z"/>
	<path display="inline" fill="#FFFFFF" d="M380.194,883.67l-2.507,6.475h-7.617l18.853-49.004l18.82,49.004h-7.617l-2.476-6.475
		H380.194z M382.923,876.561h11.997l-5.998-15.584L382.923,876.561z"/>
	<path display="inline" fill="#FFFFFF" d="M437.037,870.499v-27.485h7.109v49.036l-21.677-29.326v27.263h-7.109v-48.877
		L437.037,870.499z"/>
	<path display="inline" fill="#FFFFFF" d="M451.763,843.013h7.109v46.973h-7.109V843.013z"/>
	<path display="inline" fill="#FFFFFF" d="M499.338,880.21v8.125c-2.75,1.101-5.691,1.65-8.824,1.65
		c-3.342,0-6.463-0.619-9.361-1.856c-2.899-1.238-5.438-2.914-7.617-5.031c-2.18-2.115-3.898-4.596-5.157-7.442
		c-1.26-2.845-1.889-5.897-1.889-9.156c0-3.237,0.629-6.3,1.889-9.188c1.259-2.888,2.978-5.39,5.157-7.506
		c2.179-2.115,4.718-3.787,7.617-5.015c2.898-1.228,6.02-1.841,9.361-1.841c3.133,0,6.074,0.539,8.824,1.619v8.22
		c-0.783-0.486-1.607-0.909-2.477-1.27c-1.988-0.825-4.103-1.237-6.348-1.237c-2.263,0-4.39,0.412-6.378,1.237
		c-1.989,0.825-3.725,1.974-5.205,3.443c-1.481,1.472-2.646,3.195-3.491,5.174c-0.847,1.979-1.27,4.1-1.27,6.363
		c0,2.265,0.423,4.386,1.27,6.363c0.846,1.979,2.01,3.703,3.491,5.174c1.48,1.471,3.216,2.624,5.205,3.459
		c1.988,0.837,4.115,1.254,6.378,1.254c2.245,0,4.359-0.423,6.348-1.27C497.731,881.121,498.555,880.698,499.338,880.21z"/>
	<path display="inline" fill="#FFFFFF" d="M546.819,868.15l10.537-16.155l7.109-10.886v48.877h-7.109v-24.978l-10.537,16.154
		l-10.537-16.154v24.978h-7.109v-48.877l7.109,10.886L546.819,868.15z"/>
	<path display="inline" fill="#FFFFFF" d="M572.083,843.267h21.645v7.109h-14.504v17.266h14.504v7.109h-14.504v8.125h14.504v7.109
		h-21.645V843.267z"/>
	<path display="inline" fill="#FFFFFF" d="M601.344,889.986v-46.719h8.603c6.452,0,11.958,2.28,16.519,6.84s6.84,10.066,6.84,16.52
		c0,6.433-2.279,11.934-6.84,16.504s-10.066,6.855-16.519,6.855H601.344z M608.454,850.344v32.532h1.493
		c4.485,0,8.319-1.587,11.505-4.761c3.184-3.174,4.775-7.004,4.775-11.489c0-4.507-1.592-8.347-4.775-11.521
		c-3.186-3.174-7.02-4.762-11.505-4.762H608.454z"/>
	<path display="inline" fill="#FFFFFF" d="M640.922,843.013h7.109v46.973h-7.109V843.013z"/>
	<path display="inline" fill="#FFFFFF" d="M665.772,883.67l-2.506,6.475h-7.617l18.853-49.004l18.82,49.004h-7.618l-2.475-6.475
		H665.772z M668.502,876.561h11.996l-5.997-15.584L668.502,876.561z"/>
</g>
<g>
	<path fill="#FFFFFF" d="M293.888,836.886h36.293v8.771h-13.913v47.182H307.8v-47.182h-13.913V836.886z"/>
	<path fill="#FFFFFF" d="M339.254,837.189h8.469v55.649h-8.469V837.189z"/>
	<path fill="#FFFFFF" d="M356.796,836.886h36.293v8.771h-13.913v47.182h-8.468v-47.182h-13.913V836.886z"/>
	<path fill="#FFFFFF" d="M410.783,836.622l15.198,56.406h-8.657l-2.382-8.923h-13.459l-2.381,8.923h-8.658l15.198-56.406H410.783z
		 M403.902,875.145h8.62l-4.272-18.033L403.902,875.145z"/>
	<path fill="#FFFFFF" d="M463.257,892.838l-19.697-34.555v34.555h-8.506v-55.801h7.788l18.222,33.495v-33.646h8.469v55.952H463.257z
		"/>
	<path fill="#FFFFFF" d="M478.606,837.189h8.469v55.649h-8.469V837.189z"/>
	<path fill="#FFFFFF" d="M535.276,881.194v9.679c-3.276,1.311-6.779,1.966-10.51,1.966c-3.982,0-7.699-0.737-11.152-2.212
		s-6.478-3.472-9.073-5.992c-2.597-2.52-4.645-5.475-6.144-8.865c-1.5-3.39-2.249-7.025-2.249-10.907
		c0-3.855,0.749-7.504,2.249-10.944c1.499-3.44,3.547-6.421,6.144-8.941c2.596-2.52,5.62-4.511,9.073-5.973s7.17-2.193,11.152-2.193
		c3.73,0,7.233,0.644,10.51,1.929v9.791c-0.933-0.579-1.915-1.083-2.948-1.512c-2.369-0.983-4.89-1.475-7.562-1.475
		c-2.697,0-5.229,0.491-7.599,1.475c-2.369,0.982-4.437,2.351-6.2,4.102c-1.765,1.752-3.15,3.807-4.158,6.162
		c-1.009,2.357-1.513,4.884-1.513,7.58c0,2.697,0.504,5.224,1.513,7.58c1.008,2.357,2.394,4.411,4.158,6.163
		c1.764,1.752,3.831,3.125,6.2,4.12c2.369,0.996,4.901,1.493,7.599,1.493c2.672,0,5.192-0.504,7.562-1.512
		C533.361,882.278,534.343,881.774,535.276,881.194z"/>
	<path fill="#FFFFFF" d="M609.942,881.194v9.679c-3.276,1.311-6.779,1.966-10.51,1.966c-3.982,0-7.699-0.737-11.152-2.212
		s-6.478-3.472-9.073-5.992c-2.597-2.52-4.645-5.475-6.144-8.865c-1.5-3.39-2.249-7.025-2.249-10.907
		c0-3.855,0.749-7.504,2.249-10.944c1.499-3.44,3.547-6.421,6.144-8.941c2.596-2.52,5.62-4.511,9.073-5.973s7.17-2.193,11.152-2.193
		c3.73,0,7.233,0.644,10.51,1.929v9.791c-0.933-0.579-1.915-1.083-2.948-1.512c-2.369-0.983-4.89-1.475-7.562-1.475
		c-2.697,0-5.229,0.491-7.599,1.475c-2.369,0.982-4.437,2.351-6.2,4.102c-1.765,1.752-3.15,3.807-4.158,6.162
		c-1.009,2.357-1.513,4.884-1.513,7.58c0,2.697,0.504,5.224,1.513,7.58c1.008,2.357,2.394,4.411,4.158,6.163
		c1.764,1.752,3.831,3.125,6.2,4.12c2.369,0.996,4.901,1.493,7.599,1.493c2.672,0,5.192-0.504,7.562-1.512
		C608.027,882.278,609.009,881.774,609.942,881.194z"/>
	<path fill="#FFFFFF" d="M648.088,837.038h7.069v55.876h-8.506v-27.03l-9.565,25.519l-9.603-25.896v27.333h-8.468v-55.801h7.069
		l11.001,29.941L648.088,837.038z"/>
	<path fill="#FFFFFF" d="M676.594,892.914c-2.42,0-4.556-0.302-6.408-0.907c-1.853-0.604-3.838-1.688-5.954-3.251v-10.396
		c1.31,1.387,2.318,2.325,3.024,2.816c0.705,0.491,1.568,1.015,2.589,1.569c1.021,0.555,2.148,1.021,3.384,1.398
		c1.234,0.378,2.458,0.567,3.667,0.567c2.495,0,4.543-0.863,6.144-2.59s2.401-3.774,2.401-6.144c0-1.94-0.681-3.516-2.042-4.726
		s-3.592-2.596-6.691-4.159c-1.865-0.957-3.44-1.826-4.726-2.608c-1.286-0.78-2.521-1.751-3.705-2.911
		c-1.186-1.158-2.143-2.538-2.873-4.14c-0.731-1.6-1.097-3.483-1.097-5.651c0.101-2.117,0.617-4.089,1.55-5.917
		c0.933-1.827,2.193-3.427,3.781-4.801c1.587-1.374,3.396-2.438,5.425-3.195c2.028-0.756,4.164-1.134,6.408-1.134
		c1.688,0.051,3.226,0.283,4.612,0.699c1.386,0.416,2.961,1.166,4.726,2.25v8.732c-1.059-0.705-1.783-1.14-2.174-1.304
		c-0.392-0.164-0.945-0.441-1.664-0.832c-0.718-0.391-1.55-0.725-2.495-1.002c-0.944-0.277-1.946-0.416-3.005-0.416
		c-2.37,0.025-4.373,0.775-6.012,2.25s-2.457,3.182-2.457,5.122c0.05,1.841,0.737,3.309,2.061,4.404
		c1.323,1.097,3.459,2.325,6.408,3.687c2.016,0.958,3.66,1.802,4.934,2.533c1.272,0.73,2.526,1.676,3.762,2.835
		c1.234,1.16,2.23,2.622,2.986,4.386c0.756,1.765,1.159,3.856,1.21,6.275c0,2.219-0.467,4.329-1.399,6.333
		c-0.933,2.003-2.23,3.774-3.894,5.312s-3.572,2.74-5.728,3.61C681.187,892.479,678.938,892.914,676.594,892.914z"/>
</g>
</svg>
