<?xml version="1.0" encoding="utf-8"?>
<!-- Generator: Adobe Illustrator 16.0.0, SVG Export Plug-In . SVG Version: 6.00 Build 0)  -->
<!DOCTYPE svg PUBLIC "-//W3C//DTD SVG 1.1//EN" "http://www.w3.org/Graphics/SVG/1.1/DTD/svg11.dtd">
<svg version="1.1" id="Layer_1" xmlns="http://www.w3.org/2000/svg" xmlns:xlink="http://www.w3.org/1999/xlink" x="0px" y="0px"
	 width="1280px" height="285.5px" viewBox="0 0 1280 285.5" enable-background="new 0 0 1280 285.5" xml:space="preserve">
<g id="Layer_1_1_" display="none">
	<g display="inline">
		<rect x="-554" y="-286.5" fill="#161616" width="2544" height="805"/>
		<rect x="-554" y="-286.5" fill="#BE2229" width="2544" height="805"/>
		<g>
			<g>
				<defs>
					<rect id="SVGID_1_" x="-515.316" y="-244.194" width="2476.419" height="709.861"/>
				</defs>
				<clipPath id="SVGID_2_">
					<use xlink:href="#SVGID_1_"  overflow="visible"/>
				</clipPath>
				<path clip-path="url(#SVGID_2_)" fill="#BE2229" d="M-1346.398,1182.438h3916.199V-850.828h-3916.199V1182.438z"/>
			</g>
			<g>
				<defs>
					<rect id="SVGID_3_" x="-515.316" y="-244.194" width="2476.419" height="709.861"/>
				</defs>
				<clipPath id="SVGID_4_">
					<use xlink:href="#SVGID_3_"  overflow="visible"/>
				</clipPath>
				<path clip-path="url(#SVGID_4_)" fill="#89181F" d="M-797.791,1062.086l25.5-25.514V-723.292l-25.5-25.513V1062.086z
					 M-1222.551,1062.086l25.5-25.514V-723.292l-25.5-25.513V1062.086z M-1010.184,1062.086l25.513-25.514V-723.292l-25.513-25.513
					V1062.086z M2522.475-748.804v1810.89l25.493-25.514V-723.292L2522.475-748.804z M-373.031,1062.086l25.513-25.514V-723.292
					l-25.513-25.513V1062.086z"/>
			</g>
			<g>
				<defs>
					<rect id="SVGID_5_" x="-515.316" y="-244.194" width="2476.419" height="709.861"/>
				</defs>
				<clipPath id="SVGID_6_">
					<use xlink:href="#SVGID_5_"  overflow="visible"/>
				</clipPath>
				<path clip-path="url(#SVGID_6_)" fill="#DC1F26" d="M-687.438,1036.572l25.501,25.514v-1810.89l-25.501,25.513V1036.572z
					 M-899.817,1036.572l25.501,25.514v-1810.89l-25.501,25.513V1036.572z M-1112.197,1036.572l25.5,25.514v-1810.89l-25.5,25.513
					V1036.572z M-1324.571,1036.572l25.495,25.514v-1810.89l-25.495,25.513V1036.572z M-475.057,1036.572l25.512,25.514v-1810.89
					l-25.512,25.513V1036.572z M2420.447-723.292v1759.864l25.501,25.514v-1810.89L2420.447-723.292z"/>
			</g>
			<g>
				<defs>
					<rect id="SVGID_7_" x="-515.316" y="-244.194" width="2476.419" height="709.861"/>
				</defs>
				<clipPath id="SVGID_8_">
					<use xlink:href="#SVGID_7_"  overflow="visible"/>
				</clipPath>
				<polygon clip-path="url(#SVGID_8_)" fill="#DC1F26" points="1187.812,1036.572 1213.312,1062.086 1213.312,-748.804 
					1187.812,-723.292 				"/>
			</g>
			<g>
				<defs>
					<rect id="SVGID_9_" x="-515.316" y="-244.194" width="2476.419" height="709.861"/>
				</defs>
				<clipPath id="SVGID_10_">
					<use xlink:href="#SVGID_9_"  overflow="visible"/>
				</clipPath>
				<polygon clip-path="url(#SVGID_10_)" fill="#89181F" points="1085.787,1062.086 1111.288,1036.572 1111.288,-723.292 
					1085.787,-748.804 				"/>
			</g>
			<g>
				<defs>
					<rect id="SVGID_11_" x="-515.316" y="-244.194" width="2476.419" height="709.861"/>
				</defs>
				<clipPath id="SVGID_12_">
					<use xlink:href="#SVGID_11_"  overflow="visible"/>
				</clipPath>
				<polygon clip-path="url(#SVGID_12_)" fill="#DC1F26" points="983.768,1036.572 1009.26,1062.086 1009.26,-748.804 
					983.768,-723.292 				"/>
			</g>
			<g>
				<defs>
					<rect id="SVGID_13_" x="-515.316" y="-244.194" width="2476.419" height="709.861"/>
				</defs>
				<clipPath id="SVGID_14_">
					<use xlink:href="#SVGID_13_"  overflow="visible"/>
				</clipPath>
				<polygon clip-path="url(#SVGID_14_)" fill="#89181F" points="881.739,1062.086 907.232,1036.572 907.232,-723.292 
					881.739,-748.804 				"/>
			</g>
			<g>
				<defs>
					<rect id="SVGID_15_" x="-515.316" y="-244.194" width="2476.419" height="709.861"/>
				</defs>
				<clipPath id="SVGID_16_">
					<use xlink:href="#SVGID_15_"  overflow="visible"/>
				</clipPath>
				<polygon clip-path="url(#SVGID_16_)" fill="#DC1F26" points="779.713,1036.572 805.214,1062.086 805.214,-748.804 
					779.713,-723.292 				"/>
			</g>
			<g>
				<defs>
					<rect id="SVGID_17_" x="-515.316" y="-244.194" width="2476.419" height="709.861"/>
				</defs>
				<clipPath id="SVGID_18_">
					<use xlink:href="#SVGID_17_"  overflow="visible"/>
				</clipPath>
				<polygon clip-path="url(#SVGID_18_)" fill="#89181F" points="677.68,1062.086 703.181,1036.572 703.181,-723.292 
					677.68,-748.804 				"/>
			</g>
			<g>
				<defs>
					<rect id="SVGID_19_" x="-515.316" y="-244.194" width="2476.419" height="709.861"/>
				</defs>
				<clipPath id="SVGID_20_">
					<use xlink:href="#SVGID_19_"  overflow="visible"/>
				</clipPath>
				<polygon clip-path="url(#SVGID_20_)" fill="#DC1F26" points="575.666,1036.572 601.16,1062.086 601.16,-748.804 
					575.666,-723.292 				"/>
			</g>
			<g>
				<defs>
					<rect id="SVGID_21_" x="-515.316" y="-244.194" width="2476.419" height="709.861"/>
				</defs>
				<clipPath id="SVGID_22_">
					<use xlink:href="#SVGID_21_"  overflow="visible"/>
				</clipPath>
				<polygon clip-path="url(#SVGID_22_)" fill="#89181F" points="473.633,1062.086 499.133,1036.572 499.133,-723.292 
					473.633,-748.804 				"/>
			</g>
			<g>
				<defs>
					<rect id="SVGID_23_" x="-515.316" y="-244.194" width="2476.419" height="709.861"/>
				</defs>
				<clipPath id="SVGID_24_">
					<use xlink:href="#SVGID_23_"  overflow="visible"/>
				</clipPath>
				<polygon clip-path="url(#SVGID_24_)" fill="#DC1F26" points="371.612,1036.572 397.113,1062.086 397.113,-748.804 
					371.612,-723.292 				"/>
			</g>
			<g>
				<defs>
					<rect id="SVGID_25_" x="-515.316" y="-244.194" width="2476.419" height="709.861"/>
				</defs>
				<clipPath id="SVGID_26_">
					<use xlink:href="#SVGID_25_"  overflow="visible"/>
				</clipPath>
				<polygon clip-path="url(#SVGID_26_)" fill="#89181F" points="269.58,1062.086 295.086,1036.572 295.086,-723.292 
					269.58,-748.804 				"/>
			</g>
			<g>
				<defs>
					<rect id="SVGID_27_" x="-515.316" y="-244.194" width="2476.419" height="709.861"/>
				</defs>
				<clipPath id="SVGID_28_">
					<use xlink:href="#SVGID_27_"  overflow="visible"/>
				</clipPath>
				<polygon clip-path="url(#SVGID_28_)" fill="#DC1F26" points="167.559,1036.572 193.06,1062.086 193.06,-748.804 
					167.559,-723.292 				"/>
			</g>
			<g>
				<defs>
					<rect id="SVGID_29_" x="-515.316" y="-244.194" width="2476.419" height="709.861"/>
				</defs>
				<clipPath id="SVGID_30_">
					<use xlink:href="#SVGID_29_"  overflow="visible"/>
				</clipPath>
				<polygon clip-path="url(#SVGID_30_)" fill="#89181F" points="65.532,1062.086 91.033,1036.572 91.033,-723.292 65.532,-748.804 
									"/>
			</g>
		</g>
		<polygon fill="none" points="1915.934,276.209 -475.657,276.16 -475.657,-23.052 1915.934,-23.016 		"/>
		
			<text transform="matrix(1 0 0 1 -290.8662 235.3701)" display="none" fill="#FFFFFF" enable-background="new    " font-family="'CenturyGothic-Bold'" font-size="351.1206">CONTAINED</text>
		
			<rect x="-355.572" y="-111.308" display="none" fill="none" stroke="#FFFFFF" stroke-width="4" stroke-miterlimit="10" width="2167.081" height="450.434"/>
	</g>
</g>
<g id="Layer_2">
	<polygon fill="none" points="1256.011,226.604 27.036,226.579 27.036,72.821 1256.011,72.839 	"/>
	<g enable-background="new    ">
		<path fill="#FFFFFF" d="M255.907,98.797l-17.253,16.447c-11.737-12.404-24.941-18.607-39.611-18.607
			c-12.382,0-22.813,4.232-31.292,12.699c-8.48,8.466-12.72,18.901-12.72,31.308c0,8.642,1.877,16.315,5.633,23.018
			c3.755,6.703,9.066,11.964,15.933,15.785c6.867,3.821,14.496,5.732,22.887,5.732c7.158,0,13.701-1.337,19.629-4.013
			c5.926-2.675,12.44-7.54,19.542-14.595l16.724,17.451c-9.574,9.344-18.62,15.822-27.135,19.436
			c-8.517,3.612-18.237,5.42-29.162,5.42c-20.146,0-36.637-6.388-49.469-19.162c-12.833-12.774-19.25-29.146-19.25-49.116
			c0-12.921,2.921-24.404,8.766-34.448c5.844-10.043,14.213-18.118,25.109-24.228c10.895-6.108,22.627-9.163,35.197-9.163
			c10.689,0,20.982,2.258,30.879,6.773C240.21,84.049,248.741,90.471,255.907,98.797z"/>
		<path fill="#FFFFFF" d="M338.679,72.761c18.336,0,34.102,6.638,47.296,19.911c13.195,13.274,19.793,29.456,19.793,48.544
			c0,18.913-6.51,34.919-19.528,48.016c-13.019,13.098-28.813,19.646-47.385,19.646c-19.454,0-35.616-6.725-48.487-20.175
			s-19.307-29.427-19.307-47.928c0-12.392,2.997-23.787,8.992-34.184c5.995-10.396,14.238-18.633,24.729-24.712
			C315.271,75.801,326.57,72.761,338.679,72.761z M338.414,96.9c-11.996,0-22.079,4.172-30.25,12.511
			c-8.173,8.341-12.258,18.942-12.258,31.805c0,14.332,5.144,25.668,15.434,34.007c7.995,6.52,17.167,9.779,27.515,9.779
			c11.7,0,21.665-4.229,29.897-12.687c8.232-8.457,12.348-18.882,12.348-31.275c0-12.335-4.146-22.774-12.436-31.32
			C360.374,101.174,350.29,96.9,338.414,96.9z"/>
		<path fill="#FFFFFF" d="M429.115,76.021h23.664l55.452,85.282V76.021h24.668v129.598h-23.731l-55.384-85.018v85.018h-24.668
			V76.021z"/>
		<path fill="#FFFFFF" d="M549.726,76.021h71.626v24.316h-23.611v105.281h-25.021V100.337h-22.995V76.021z"/>
		<path fill="#FFFFFF" d="M677.805,76.021h25.018l49.846,129.598h-25.639l-10.139-26.694h-52.882l-10.544,26.694h-25.637
			L677.805,76.021z M690.469,110.38l-17.389,44.492h34.672L690.469,110.38z"/>
		<path fill="#FFFFFF" d="M769.98,76.021h24.492v129.598H769.98V76.021z"/>
		<path fill="#FFFFFF" d="M822.312,76.021h23.662l55.451,85.282V76.021h24.67v129.598h-23.732l-55.383-85.018v85.018h-24.668V76.021
			z"/>
		<path fill="#FFFFFF" d="M955.787,76.021h70.744v24.14h-46.252v23.436h46.252v23.699h-46.252v34.096h46.252v24.228h-70.744V76.021z
			"/>
		<path fill="#FFFFFF" d="M1049.615,76.021h29.225c18.836,0,32.832,2.335,41.986,7.004c9.154,4.67,16.695,12.262,22.623,22.774
			c5.928,10.515,8.891,22.79,8.891,36.827c0,9.985-1.658,19.162-4.973,27.531c-3.316,8.37-7.893,15.316-13.732,20.836
			c-5.84,5.521-12.162,9.339-18.971,11.453c-6.807,2.114-18.602,3.172-35.385,3.172h-29.664V76.021z M1074.107,99.809v81.758h11.453
			c11.275,0,19.455-1.293,24.535-3.881c5.08-2.586,9.236-6.938,12.467-13.053c3.229-6.114,4.846-13.641,4.846-22.578
			c0-13.758-3.848-24.431-11.541-32.016c-6.932-6.819-18.061-10.23-33.391-10.23H1074.107z"/>
	</g>
	
		<rect x="84.719" y="27.468" fill="none" stroke="#FFFFFF" stroke-width="13" stroke-miterlimit="10" width="1113.608" height="231.468"/>
	<g display="none">
		<g display="inline">
			<path fill="#FFFFFF" d="M113.386,216.875v7.085H97.144l-4.758,32.423h-7.35l4.756-32.423h-22.01l-4.863,32.423H55.7l4.929-32.423
				H44.544v-7.085h17.162l3.332-21.92h-16.49v-7.154h17.578l4.668-30.714h7.018l-4.607,30.714h21.893l4.507-30.714h7.353
				l-4.507,30.714h14.676v7.154H101.4l-3.216,21.92H113.386z M94.05,194.955H72.134l-3.288,21.92h21.987L94.05,194.955z"/>
			<path fill="#FFFFFF" d="M140.098,256.383v-98.969h9.186v39.836c3.85-4.725,8.153-8.258,12.917-10.598
				c4.764-2.342,9.989-3.512,15.667-3.512c10.101,0,18.72,3.664,25.867,10.991c7.146,7.33,10.719,16.224,10.719,26.679
				c0,10.328-3.605,19.143-10.821,26.449c-7.21,7.309-15.887,10.961-26.025,10.961c-5.812,0-11.078-1.248-15.798-3.74
				c-4.723-2.494-8.896-6.235-12.527-11.226v13.127L140.098,256.383L140.098,256.383z M176.849,249.359
				c5.108,0,9.824-1.258,14.144-3.772c4.319-2.517,7.756-6.047,10.31-10.599c2.554-4.553,3.831-9.362,3.831-14.438
				c0-5.075-1.287-9.909-3.862-14.505c-2.573-4.594-6.035-8.17-10.377-10.73c-4.341-2.56-8.979-3.838-13.914-3.838
				c-5.019,0-9.789,1.278-14.306,3.838c-4.517,2.562-7.988,6.006-10.412,10.338c-2.42,4.33-3.633,9.212-3.633,14.636
				c0,8.271,2.719,15.185,8.15,20.739C162.216,246.581,168.905,249.359,176.849,249.359z"/>
			<path fill="#FFFFFF" d="M291.304,232.691l7.747,4.067c-2.541,4.987-5.476,9.015-8.804,12.076
				c-3.329,3.062-7.073,5.394-11.231,6.988c-4.164,1.597-8.871,2.397-14.127,2.397c-11.647,0-20.752-3.818-27.324-11.453
				c-6.568-7.637-9.853-16.266-9.853-25.892c0-9.058,2.779-17.13,8.341-24.218c7.051-9.012,16.487-13.52,28.312-13.52
				c12.174,0,21.893,4.616,29.166,13.848c5.165,6.52,7.795,14.658,7.88,24.412h-64.25c0.175,8.295,2.827,15.093,7.953,20.396
				c5.124,5.305,11.454,7.956,18.987,7.956c3.637,0,7.171-0.633,10.611-1.896c3.44-1.264,6.362-2.94,8.772-5.035
				C285.895,240.734,288.5,237.354,291.304,232.691z M291.304,213.462c-1.226-4.899-3.011-8.815-5.355-11.748
				c-2.348-2.931-5.444-5.293-9.297-7.088c-3.855-1.793-7.908-2.69-12.158-2.69c-7.009,0-13.031,2.254-18.069,6.76
				c-3.681,3.283-6.463,8.203-8.344,14.768L291.304,213.462L291.304,213.462z"/>
			<path fill="#FFFFFF" d="M317.161,157.414h9.191v98.969h-9.191V157.414z"/>
			<path fill="#FFFFFF" d="M374.849,157.414v8.991c-3.37-1.443-6.257-2.165-8.661-2.165c-1.798,0-3.285,0.359-4.466,1.083
				c-1.182,0.722-1.924,1.554-2.23,2.493c-0.308,0.94-0.46,3.445-0.46,7.514l-0.009,9.646h14.909v7.942h-14.915l-0.051,63.463
				h-9.185V192.92h-9.385v-7.941h9.385v-11.155c0-5.119,0.47-8.772,1.41-10.962c0.94-2.187,2.535-3.947,4.79-5.28
				c2.255-1.336,4.977-2.003,8.172-2.003C367.128,155.577,370.692,156.189,374.849,157.414z"/>
			<path fill="#FFFFFF" d="M458.788,184.979v71.404h-9.056v-12.273c-3.854,4.684-8.173,8.205-12.965,10.567
				c-4.789,2.363-10.03,3.546-15.716,3.546c-10.105,0-18.739-3.666-25.891-10.994c-7.153-7.33-10.729-16.244-10.729-26.744
				c0-10.28,3.608-19.075,10.83-26.381c7.216-7.309,15.9-10.961,26.051-10.961c5.863,0,11.168,1.246,15.916,3.74
				c4.748,2.493,8.916,6.234,12.505,11.221v-13.125H458.788z M422.069,192.001c-5.114,0-9.834,1.258-14.16,3.771
				c-4.326,2.513-7.769,6.043-10.325,10.588s-3.834,9.352-3.834,14.421c0,5.026,1.29,9.836,3.869,14.422
				c2.576,4.589,6.041,8.162,10.386,10.719c4.351,2.558,9.014,3.834,14,3.834c5.025,0,9.789-1.269,14.286-3.802
				c4.504-2.534,7.966-5.965,10.392-10.291c2.428-4.329,3.642-9.201,3.642-14.619c0-8.26-2.724-15.165-8.163-20.716
				C436.717,194.777,430.021,192.001,422.069,192.001z"/>
			<path fill="#FFFFFF" d="M515.358,192.788l-5.907,6.104c-4.914-4.769-9.716-7.152-14.407-7.152c-2.986,0-5.54,0.982-7.667,2.951
				c-2.128,1.97-3.192,4.268-3.192,6.893c0,2.318,0.876,4.527,2.634,6.629c1.753,2.145,5.434,4.659,11.046,7.547
				c6.842,3.545,11.484,6.957,13.942,10.238c2.411,3.325,3.614,7.066,3.614,11.221c0,5.866-2.058,10.831-6.177,14.898
				c-4.12,4.068-9.27,6.105-15.446,6.105c-4.12,0-8.051-0.898-11.796-2.693c-3.748-1.791-6.848-4.266-9.303-7.418l5.777-6.562
				c4.691,5.296,9.668,7.94,14.932,7.94c3.681,0,6.819-1.182,9.404-3.541c2.59-2.364,3.882-5.143,3.882-8.338
				c0-2.623-0.854-4.965-2.563-7.022c-1.712-2.01-5.568-4.549-11.577-7.608c-6.443-3.326-10.831-6.608-13.152-9.848
				c-2.321-3.236-3.484-6.933-3.484-11.091c0-5.425,1.849-9.933,5.552-13.519c3.703-3.588,8.382-5.383,14.039-5.383
				C502.079,183.143,508.695,186.355,515.358,192.788z"/>
			<path fill="#FFFFFF" d="M539.642,158.464h9.188v26.515h14.568v7.941h-14.568v63.463h-9.188V192.92h-12.538v-7.941h12.538V158.464
				z"/>
			<path fill="#FFFFFF" d="M646.481,199.811l-7.283,4.527c-6.292-8.355-14.881-12.533-25.761-12.533
				c-8.697,0-15.921,2.799-21.668,8.391c-5.743,5.594-8.621,12.392-8.621,20.389c0,5.2,1.324,10.096,3.967,14.686
				c2.646,4.586,6.271,8.149,10.885,10.685c4.608,2.534,9.776,3.802,15.499,3.802c10.488,0,19.057-4.177,25.698-12.535l7.283,4.793
				c-3.411,5.139-7.997,9.125-13.747,11.957c-5.755,2.834-12.308,4.254-19.657,4.254c-11.288,0-20.651-3.59-28.086-10.766
				c-7.438-7.175-11.161-15.9-11.161-26.186c0-6.912,1.741-13.332,5.221-19.264c3.476-5.929,8.259-10.555,14.337-13.88
				c6.08-3.325,12.887-4.987,20.41-4.987c4.727,0,9.287,0.723,13.684,2.166c4.398,1.443,8.128,3.324,11.192,5.645
				C641.736,193.27,644.34,196.223,646.481,199.811z"/>
			<path fill="#FFFFFF" d="M697.935,183.143c11.003,0,20.117,3.979,27.351,11.942c6.575,7.265,9.861,15.86,9.861,25.793
				c0,9.976-3.475,18.692-10.421,26.154c-6.945,7.456-15.877,11.188-26.791,11.188c-10.958,0-19.906-3.732-26.854-11.188
				c-6.949-7.462-10.42-16.181-10.42-26.154c0-9.887,3.287-18.464,9.86-25.728C677.751,187.145,686.892,183.143,697.935,183.143z
				 M697.903,192.133c-7.64,0-14.204,2.822-19.692,8.465c-5.488,5.646-8.232,12.471-8.232,20.479c0,5.162,1.252,9.974,3.756,14.438
				c2.502,4.463,5.881,7.908,10.141,10.338c4.259,2.428,8.935,3.641,14.029,3.641c5.091,0,9.767-1.213,14.028-3.641
				c4.255-2.43,7.639-5.875,10.142-10.338c2.503-4.464,3.754-9.273,3.754-14.438c0-8.008-2.756-14.832-8.269-20.479
				C712.05,194.955,705.497,192.133,697.903,192.133z"/>
			<path fill="#FFFFFF" d="M752.142,184.979h9.188v12.799c3.676-4.899,7.743-8.564,12.207-10.992
				c4.465-2.43,9.32-3.643,14.571-3.643c5.336,0,10.071,1.354,14.206,4.066c4.136,2.714,7.188,6.367,9.157,10.961
				c1.97,4.596,2.95,11.747,2.95,21.46v36.753h-9.186v-34.061c0-8.228-0.344-13.717-1.022-16.473
				c-1.063-4.729-3.108-8.281-6.128-10.668c-3.017-2.383-6.959-3.574-11.814-3.574c-5.559,0-10.534,1.836-14.931,5.513
				c-4.398,3.676-7.3,8.226-8.699,13.649c-0.874,3.545-1.312,10.021-1.312,19.426v26.188h-9.188V184.979L752.142,184.979z"/>
			<path fill="#FFFFFF" d="M842.118,158.464h9.188v26.515h14.568v7.941h-14.568v63.463h-9.188V192.92h-12.533v-7.941h12.533V158.464
				z"/>
			<path fill="#FFFFFF" d="M950.799,184.979v71.404h-9.058v-12.273c-3.852,4.684-8.169,8.205-12.959,10.567
				c-4.793,2.363-10.033,3.546-15.72,3.546c-10.105,0-18.734-3.666-25.892-10.994c-7.151-7.33-10.729-16.244-10.729-26.744
				c0-10.28,3.607-19.075,10.827-26.381c7.221-7.309,15.902-10.961,26.055-10.961c5.861,0,11.167,1.246,15.915,3.74
				c4.749,2.493,8.915,6.234,12.502,11.221v-13.125H950.799z M914.08,192.001c-5.113,0-9.833,1.258-14.159,3.771
				s-7.769,6.043-10.325,10.588c-2.558,4.545-3.834,9.352-3.834,14.421c0,5.026,1.289,9.836,3.868,14.422
				c2.576,4.589,6.041,8.162,10.39,10.719c4.349,2.558,9.015,3.834,13.993,3.834c5.028,0,9.79-1.269,14.293-3.802
				c4.501-2.534,7.964-5.965,10.391-10.291c2.423-4.329,3.637-9.201,3.637-14.619c0-8.26-2.72-15.165-8.16-20.716
				C928.73,194.777,922.032,192.001,914.08,192.001z"/>
			<path fill="#FFFFFF" d="M974.655,155.577c2.09,0,3.875,0.743,5.354,2.231c1.484,1.486,2.225,3.28,2.225,5.381
				c0,2.057-0.739,3.83-2.225,5.314c-1.479,1.489-3.265,2.23-5.354,2.23c-2.05,0-3.814-0.741-5.294-2.23
				c-1.48-1.484-2.222-3.259-2.222-5.314c0-2.101,0.74-3.895,2.222-5.381C970.841,156.32,972.605,155.577,974.655,155.577z
				 M970.091,184.979h9.188v71.404h-9.188V184.979z"/>
			<path fill="#FFFFFF" d="M998.378,184.979h9.188v12.799c3.675-4.899,7.742-8.564,12.205-10.992
				c4.467-2.43,9.321-3.643,14.571-3.643c5.337,0,10.071,1.354,14.207,4.066c4.136,2.714,7.188,6.367,9.157,10.961
				c1.966,4.596,2.95,11.747,2.95,21.46v36.753h-9.187v-34.061c0-8.228-0.343-13.717-1.021-16.473
				c-1.063-4.729-3.106-8.281-6.126-10.668c-3.02-2.383-6.959-3.574-11.816-3.574c-5.559,0-10.534,1.836-14.931,5.513
				c-4.398,3.676-7.298,8.226-8.699,13.649c-0.873,3.545-1.312,10.021-1.312,19.426v26.188h-9.188L998.378,184.979L998.378,184.979z
				"/>
			<path fill="#FFFFFF" d="M1140.465,232.691l7.743,4.067c-2.54,4.987-5.476,9.015-8.804,12.076
				c-3.329,3.062-7.07,5.394-11.23,6.988c-4.162,1.597-8.871,2.397-14.124,2.397c-11.649,0-20.757-3.818-27.325-11.453
				c-6.57-7.637-9.854-16.266-9.854-25.892c0-9.058,2.782-17.13,8.344-24.218c7.049-9.012,16.487-13.52,28.311-13.52
				c12.175,0,21.896,4.616,29.166,13.848c5.168,6.52,7.794,14.658,7.883,24.412h-64.249c0.174,8.295,2.823,15.093,7.949,20.396
				c5.123,5.305,11.453,7.956,18.99,7.956c3.634,0,7.172-0.633,10.61-1.896c3.438-1.265,6.361-2.94,8.771-5.035
				C1135.053,240.734,1137.661,237.354,1140.465,232.691z M1140.465,213.462c-1.229-4.899-3.014-8.815-5.357-11.748
				c-2.344-2.931-5.439-5.293-9.297-7.088c-3.854-1.793-7.907-2.69-12.154-2.69c-7.011,0-13.034,2.254-18.072,6.76
				c-3.678,3.283-6.46,8.203-8.344,14.768L1140.465,213.462L1140.465,213.462z"/>
			<path fill="#FFFFFF" d="M1238.97,157.414v98.969h-9.056v-12.273c-3.853,4.684-8.172,8.205-12.961,10.567
				c-4.793,2.363-10.031,3.546-15.719,3.546c-10.106,0-18.736-3.666-25.89-10.994c-7.156-7.33-10.731-16.244-10.731-26.744
				c0-10.28,3.61-19.075,10.829-26.381c7.221-7.309,15.903-10.961,26.056-10.961c5.863,0,11.167,1.246,15.915,3.74
				c4.745,2.493,8.913,6.234,12.501,11.221v-40.688L1238.97,157.414L1238.97,157.414z M1202.25,192.001
				c-5.109,0-9.829,1.258-14.159,3.771c-4.325,2.513-7.769,6.043-10.322,10.588c-2.557,4.545-3.836,9.352-3.836,14.421
				c0,5.026,1.289,9.836,3.868,14.422c2.579,4.589,6.041,8.162,10.389,10.719c4.35,2.558,9.015,3.834,13.997,3.834
				c5.025,0,9.789-1.269,14.29-3.802c4.5-2.534,7.963-5.965,10.39-10.291c2.427-4.329,3.641-9.201,3.641-14.619
				c0-8.26-2.722-15.165-8.163-20.716C1216.902,194.777,1210.204,192.001,1202.25,192.001z"/>
		</g>
	</g>
</g>
</svg>
