<?xml version="1.0" encoding="utf-8"?>
<!-- Generator: Adobe Illustrator 16.0.0, SVG Export Plug-In . SVG Version: 6.00 Build 0)  -->
<!DOCTYPE svg PUBLIC "-//W3C//DTD SVG 1.1//EN" "http://www.w3.org/Graphics/SVG/1.1/DTD/svg11.dtd">
<svg version="1.1" id="Layer_1" xmlns="http://www.w3.org/2000/svg" xmlns:xlink="http://www.w3.org/1999/xlink" x="0px" y="0px"
	 width="1280px" height="160px" viewBox="0 0 1280 160" enable-background="new 0 0 1280 160" xml:space="preserve">
<g id="Layer_1_1_" display="none">
	<g display="inline">
		<rect x="-554" y="-412" fill="#161616" width="2544" height="805"/>
		<rect x="-554" y="-412" fill="#BE2229" width="2544" height="805"/>
		<g>
			<g>
				<defs>
					<rect id="SVGID_1_" x="-515.316" y="-369.694" width="2476.419" height="709.861"/>
				</defs>
				<clipPath id="SVGID_2_">
					<use xlink:href="#SVGID_1_"  overflow="visible"/>
				</clipPath>
				<path clip-path="url(#SVGID_2_)" fill="#BE2229" d="M-1346.398,1056.938h3916.199V-976.328h-3916.199V1056.938z"/>
			</g>
			<g>
				<defs>
					<rect id="SVGID_3_" x="-515.316" y="-369.694" width="2476.419" height="709.861"/>
				</defs>
				<clipPath id="SVGID_4_">
					<use xlink:href="#SVGID_3_"  overflow="visible"/>
				</clipPath>
				<path clip-path="url(#SVGID_4_)" fill="#89181F" d="M-797.791,936.586l25.5-25.514V-848.792l-25.5-25.513V936.586z
					 M-1222.551,936.586l25.5-25.514V-848.792l-25.5-25.513V936.586z M-1010.184,936.586l25.513-25.514V-848.792l-25.513-25.513
					V936.586z M2522.475-874.304v1810.89l25.493-25.514V-848.792L2522.475-874.304z M-373.031,936.586l25.513-25.514V-848.792
					l-25.513-25.513V936.586z"/>
			</g>
			<g>
				<defs>
					<rect id="SVGID_5_" x="-515.316" y="-369.694" width="2476.419" height="709.861"/>
				</defs>
				<clipPath id="SVGID_6_">
					<use xlink:href="#SVGID_5_"  overflow="visible"/>
				</clipPath>
				<path clip-path="url(#SVGID_6_)" fill="#DC1F26" d="M-687.438,911.072l25.501,25.514v-1810.89l-25.501,25.513V911.072z
					 M-899.817,911.072l25.501,25.514v-1810.89l-25.501,25.513V911.072z M-1112.197,911.072l25.5,25.514v-1810.89l-25.5,25.513
					V911.072z M-1324.571,911.072l25.495,25.514v-1810.89l-25.495,25.513V911.072z M-475.057,911.072l25.512,25.514v-1810.89
					l-25.512,25.513V911.072z M2420.447-848.792V911.072l25.501,25.514v-1810.89L2420.447-848.792z"/>
			</g>
			<g>
				<defs>
					<rect id="SVGID_7_" x="-515.316" y="-369.694" width="2476.419" height="709.861"/>
				</defs>
				<clipPath id="SVGID_8_">
					<use xlink:href="#SVGID_7_"  overflow="visible"/>
				</clipPath>
				<polygon clip-path="url(#SVGID_8_)" fill="#DC1F26" points="1187.812,911.072 1213.312,936.586 1213.312,-874.304 
					1187.812,-848.792 				"/>
			</g>
			<g>
				<defs>
					<rect id="SVGID_9_" x="-515.316" y="-369.694" width="2476.419" height="709.861"/>
				</defs>
				<clipPath id="SVGID_10_">
					<use xlink:href="#SVGID_9_"  overflow="visible"/>
				</clipPath>
				<polygon clip-path="url(#SVGID_10_)" fill="#89181F" points="1085.787,936.586 1111.288,911.072 1111.288,-848.792 
					1085.787,-874.304 				"/>
			</g>
			<g>
				<defs>
					<rect id="SVGID_11_" x="-515.316" y="-369.694" width="2476.419" height="709.861"/>
				</defs>
				<clipPath id="SVGID_12_">
					<use xlink:href="#SVGID_11_"  overflow="visible"/>
				</clipPath>
				<polygon clip-path="url(#SVGID_12_)" fill="#DC1F26" points="983.768,911.072 1009.26,936.586 1009.26,-874.304 
					983.768,-848.792 				"/>
			</g>
			<g>
				<defs>
					<rect id="SVGID_13_" x="-515.316" y="-369.694" width="2476.419" height="709.861"/>
				</defs>
				<clipPath id="SVGID_14_">
					<use xlink:href="#SVGID_13_"  overflow="visible"/>
				</clipPath>
				<polygon clip-path="url(#SVGID_14_)" fill="#89181F" points="881.739,936.586 907.232,911.072 907.232,-848.792 
					881.739,-874.304 				"/>
			</g>
			<g>
				<defs>
					<rect id="SVGID_15_" x="-515.316" y="-369.694" width="2476.419" height="709.861"/>
				</defs>
				<clipPath id="SVGID_16_">
					<use xlink:href="#SVGID_15_"  overflow="visible"/>
				</clipPath>
				<polygon clip-path="url(#SVGID_16_)" fill="#DC1F26" points="779.713,911.072 805.214,936.586 805.214,-874.304 
					779.713,-848.792 				"/>
			</g>
			<g>
				<defs>
					<rect id="SVGID_17_" x="-515.316" y="-369.694" width="2476.419" height="709.861"/>
				</defs>
				<clipPath id="SVGID_18_">
					<use xlink:href="#SVGID_17_"  overflow="visible"/>
				</clipPath>
				<polygon clip-path="url(#SVGID_18_)" fill="#89181F" points="677.68,936.586 703.181,911.072 703.181,-848.792 677.68,-874.304 
									"/>
			</g>
			<g>
				<defs>
					<rect id="SVGID_19_" x="-515.316" y="-369.694" width="2476.419" height="709.861"/>
				</defs>
				<clipPath id="SVGID_20_">
					<use xlink:href="#SVGID_19_"  overflow="visible"/>
				</clipPath>
				<polygon clip-path="url(#SVGID_20_)" fill="#DC1F26" points="575.666,911.072 601.16,936.586 601.16,-874.304 575.666,-848.792 
									"/>
			</g>
			<g>
				<defs>
					<rect id="SVGID_21_" x="-515.316" y="-369.694" width="2476.419" height="709.861"/>
				</defs>
				<clipPath id="SVGID_22_">
					<use xlink:href="#SVGID_21_"  overflow="visible"/>
				</clipPath>
				<polygon clip-path="url(#SVGID_22_)" fill="#89181F" points="473.633,936.586 499.133,911.072 499.133,-848.792 
					473.633,-874.304 				"/>
			</g>
			<g>
				<defs>
					<rect id="SVGID_23_" x="-515.316" y="-369.694" width="2476.419" height="709.861"/>
				</defs>
				<clipPath id="SVGID_24_">
					<use xlink:href="#SVGID_23_"  overflow="visible"/>
				</clipPath>
				<polygon clip-path="url(#SVGID_24_)" fill="#DC1F26" points="371.612,911.072 397.113,936.586 397.113,-874.304 
					371.612,-848.792 				"/>
			</g>
			<g>
				<defs>
					<rect id="SVGID_25_" x="-515.316" y="-369.694" width="2476.419" height="709.861"/>
				</defs>
				<clipPath id="SVGID_26_">
					<use xlink:href="#SVGID_25_"  overflow="visible"/>
				</clipPath>
				<polygon clip-path="url(#SVGID_26_)" fill="#89181F" points="269.58,936.586 295.086,911.072 295.086,-848.792 269.58,-874.304 
									"/>
			</g>
			<g>
				<defs>
					<rect id="SVGID_27_" x="-515.316" y="-369.694" width="2476.419" height="709.861"/>
				</defs>
				<clipPath id="SVGID_28_">
					<use xlink:href="#SVGID_27_"  overflow="visible"/>
				</clipPath>
				<polygon clip-path="url(#SVGID_28_)" fill="#DC1F26" points="167.559,911.072 193.06,936.586 193.06,-874.304 167.559,-848.792 
									"/>
			</g>
			<g>
				<defs>
					<rect id="SVGID_29_" x="-515.316" y="-369.694" width="2476.419" height="709.861"/>
				</defs>
				<clipPath id="SVGID_30_">
					<use xlink:href="#SVGID_29_"  overflow="visible"/>
				</clipPath>
				<polygon clip-path="url(#SVGID_30_)" fill="#89181F" points="65.532,936.586 91.033,911.072 91.033,-848.792 65.532,-874.304 
									"/>
			</g>
		</g>
		<polygon fill="none" points="1915.934,150.709 -475.657,150.66 -475.657,-148.552 1915.934,-148.516 		"/>
		
			<text transform="matrix(1 0 0 1 -290.8662 109.8701)" display="none" fill="#FFFFFF" enable-background="new    " font-family="'CenturyGothic-Bold'" font-size="351.1206">CONTAINED</text>
		
			<rect x="-355.572" y="-236.808" display="none" fill="none" stroke="#FFFFFF" stroke-width="4" stroke-miterlimit="10" width="2167.081" height="450.434"/>
	</g>
</g>
<g id="Layer_2">
	<polygon display="none" points="1269.011,40.103 40.036,40.079 40.036,-113.679 1269.011,-113.661 	"/>
	
		<text transform="matrix(1 0 0 1 134.9927 19.1182)" display="none" enable-background="new    " font-family="'CenturyGothic-Bold'" font-size="180.432">CONTAINED</text>
	
		<rect x="97.719" y="-159.032" display="none" stroke="#FFFFFF" stroke-width="13" stroke-miterlimit="10" width="1113.608" height="231.467"/>
	<g>
		<g>
			<path d="M113.386,91.375v7.085H97.144l-4.758,32.423h-7.35l4.756-32.423h-22.01l-4.863,32.423H55.7l4.929-32.423H44.544v-7.085
				h17.162l3.332-21.92h-16.49v-7.154h17.578l4.668-30.714h7.018l-4.607,30.714h21.893l4.507-30.714h7.353l-4.507,30.714h14.676
				v7.154H101.4l-3.216,21.92H113.386z M94.05,69.455H72.134l-3.288,21.92h21.987L94.05,69.455z"/>
			<path d="M140.098,130.883V31.914h9.186V71.75c3.85-4.724,8.153-8.258,12.917-10.598c4.764-2.341,9.989-3.511,15.667-3.511
				c10.101,0,18.72,3.664,25.867,10.991c7.146,7.33,10.719,16.224,10.719,26.679c0,10.328-3.605,19.143-10.821,26.449
				c-7.21,7.309-15.887,10.961-26.025,10.961c-5.812,0-11.078-1.248-15.798-3.74c-4.723-2.494-8.896-6.235-12.527-11.226v13.127
				L140.098,130.883L140.098,130.883z M176.849,123.859c5.108,0,9.824-1.258,14.144-3.772c4.319-2.517,7.756-6.047,10.31-10.599
				c2.554-4.553,3.831-9.362,3.831-14.438c0-5.075-1.287-9.909-3.862-14.505c-2.573-4.594-6.035-8.17-10.377-10.73
				c-4.341-2.56-8.979-3.839-13.914-3.839c-5.019,0-9.789,1.279-14.306,3.839c-4.517,2.561-7.988,6.005-10.412,10.337
				c-2.42,4.331-3.633,9.212-3.633,14.636c0,8.271,2.719,15.185,8.15,20.739C162.216,121.081,168.905,123.859,176.849,123.859z"/>
			<path d="M291.304,107.191l7.747,4.067c-2.541,4.987-5.476,9.015-8.804,12.076c-3.329,3.062-7.073,5.394-11.231,6.988
				c-4.164,1.597-8.871,2.397-14.127,2.397c-11.647,0-20.752-3.818-27.324-11.453c-6.568-7.637-9.853-16.266-9.853-25.892
				c0-9.058,2.779-17.13,8.341-24.218c7.051-9.012,16.487-13.519,28.312-13.519c12.174,0,21.893,4.616,29.166,13.847
				c5.165,6.52,7.795,14.659,7.88,24.413h-64.25c0.175,8.295,2.827,15.093,7.953,20.396c5.124,5.305,11.454,7.956,18.987,7.956
				c3.637,0,7.171-0.633,10.611-1.896c3.44-1.264,6.362-2.94,8.772-5.034C285.895,115.234,288.5,111.854,291.304,107.191z
				 M291.304,87.962c-1.226-4.899-3.011-8.816-5.355-11.748c-2.348-2.931-5.444-5.293-9.297-7.088
				c-3.855-1.793-7.908-2.69-12.158-2.69c-7.009,0-13.031,2.254-18.069,6.759c-3.681,3.283-6.463,8.204-8.344,14.768L291.304,87.962
				L291.304,87.962z"/>
			<path d="M317.161,31.914h9.191v98.969h-9.191V31.914z"/>
			<path d="M374.849,31.914v8.991c-3.37-1.443-6.257-2.165-8.661-2.165c-1.798,0-3.285,0.36-4.466,1.083
				c-1.182,0.722-1.924,1.554-2.23,2.493c-0.308,0.941-0.46,3.446-0.46,7.514l-0.009,9.647h14.909v7.942h-14.915l-0.051,63.463
				h-9.185V67.42h-9.385v-7.942h9.385V48.322c0-5.119,0.47-8.772,1.41-10.961c0.94-2.187,2.535-3.948,4.79-5.281
				c2.255-1.336,4.977-2.003,8.172-2.003C367.128,30.077,370.692,30.689,374.849,31.914z"/>
			<path d="M458.788,59.478v71.405h-9.056v-12.273c-3.854,4.684-8.173,8.205-12.965,10.567c-4.789,2.363-10.03,3.546-15.716,3.546
				c-10.105,0-18.739-3.666-25.891-10.994c-7.153-7.33-10.729-16.244-10.729-26.744c0-10.28,3.608-19.075,10.83-26.381
				c7.216-7.308,15.9-10.961,26.051-10.961c5.863,0,11.168,1.246,15.916,3.741c4.748,2.493,8.916,6.234,12.505,11.221V59.478
				H458.788z M422.069,66.501c-5.114,0-9.834,1.258-14.16,3.771c-4.326,2.512-7.769,6.042-10.325,10.587
				c-2.556,4.545-3.834,9.352-3.834,14.421c0,5.026,1.29,9.836,3.869,14.422c2.576,4.589,6.041,8.162,10.386,10.719
				c4.351,2.558,9.014,3.834,14,3.834c5.025,0,9.789-1.269,14.286-3.802c4.504-2.534,7.966-5.965,10.392-10.291
				c2.428-4.329,3.642-9.201,3.642-14.619c0-8.26-2.724-15.165-8.163-20.716C436.717,69.277,430.021,66.501,422.069,66.501z"/>
			<path d="M515.358,67.288l-5.907,6.104c-4.914-4.768-9.716-7.152-14.407-7.152c-2.986,0-5.54,0.983-7.667,2.952
				c-2.128,1.969-3.192,4.267-3.192,6.892c0,2.318,0.876,4.527,2.634,6.629c1.753,2.145,5.434,4.659,11.046,7.547
				c6.842,3.545,11.484,6.957,13.942,10.238c2.411,3.325,3.614,7.066,3.614,11.221c0,5.866-2.058,10.831-6.177,14.898
				c-4.12,4.068-9.27,6.105-15.446,6.105c-4.12,0-8.051-0.898-11.796-2.693c-3.748-1.791-6.848-4.266-9.303-7.418l5.777-6.562
				c4.691,5.296,9.668,7.94,14.932,7.94c3.681,0,6.819-1.182,9.404-3.541c2.59-2.364,3.882-5.143,3.882-8.338
				c0-2.623-0.854-4.965-2.563-7.022c-1.712-2.01-5.568-4.549-11.577-7.608c-6.443-3.326-10.831-6.608-13.152-9.848
				c-2.321-3.236-3.484-6.933-3.484-11.091c0-5.425,1.849-9.932,5.552-13.519c3.703-3.588,8.382-5.382,14.039-5.382
				C502.079,57.642,508.695,60.856,515.358,67.288z"/>
			<path d="M539.642,32.964h9.188v26.514h14.568v7.942h-14.568v63.463h-9.188V67.42h-12.538v-7.942h12.538V32.964z"/>
			<path d="M646.481,74.311l-7.283,4.527c-6.292-8.355-14.881-12.534-25.761-12.534c-8.697,0-15.921,2.799-21.668,8.392
				c-5.743,5.593-8.621,12.391-8.621,20.388c0,5.2,1.324,10.096,3.967,14.686c2.646,4.586,6.271,8.149,10.885,10.685
				c4.608,2.534,9.776,3.802,15.499,3.802c10.488,0,19.057-4.177,25.698-12.536l7.283,4.794c-3.411,5.139-7.997,9.125-13.747,11.957
				c-5.755,2.833-12.308,4.254-19.657,4.254c-11.288,0-20.651-3.59-28.086-10.766c-7.438-7.175-11.161-15.9-11.161-26.186
				c0-6.912,1.741-13.332,5.221-19.264c3.476-5.929,8.259-10.555,14.337-13.88c6.08-3.325,12.887-4.987,20.41-4.987
				c4.727,0,9.287,0.722,13.684,2.166c4.398,1.443,8.128,3.324,11.192,5.644C641.736,67.77,644.34,70.723,646.481,74.311z"/>
			<path d="M697.935,57.642c11.003,0,20.117,3.98,27.351,11.943c6.575,7.264,9.861,15.86,9.861,25.793
				c0,9.976-3.475,18.692-10.421,26.154c-6.945,7.457-15.877,11.188-26.791,11.188c-10.958,0-19.906-3.731-26.854-11.188
				c-6.949-7.462-10.42-16.181-10.42-26.154c0-9.887,3.287-18.464,9.86-25.727C677.751,61.645,686.892,57.642,697.935,57.642z
				 M697.903,66.633c-7.64,0-14.204,2.822-19.692,8.465c-5.488,5.646-8.232,12.47-8.232,20.478c0,5.163,1.252,9.974,3.756,14.438
				c2.502,4.463,5.881,7.908,10.141,10.338c4.259,2.428,8.935,3.641,14.029,3.641c5.091,0,9.767-1.213,14.028-3.641
				c4.255-2.43,7.639-5.875,10.142-10.338c2.503-4.464,3.754-9.273,3.754-14.438c0-8.008-2.756-14.832-8.269-20.478
				C712.05,69.455,705.497,66.633,697.903,66.633z"/>
			<path d="M752.142,59.478h9.188v12.799c3.676-4.899,7.743-8.564,12.207-10.992c4.465-2.429,9.32-3.643,14.571-3.643
				c5.336,0,10.071,1.355,14.206,4.067c4.136,2.714,7.188,6.367,9.157,10.961c1.97,4.596,2.95,11.747,2.95,21.46v36.753h-9.186
				V96.822c0-8.228-0.344-13.717-1.022-16.473c-1.063-4.728-3.108-8.281-6.128-10.667c-3.017-2.383-6.959-3.575-11.814-3.575
				c-5.559,0-10.534,1.837-14.931,5.513c-4.398,3.676-7.3,8.226-8.699,13.649c-0.874,3.545-1.312,10.021-1.312,19.426v26.188h-9.188
				V59.478L752.142,59.478z"/>
			<path d="M842.118,32.964h9.188v26.514h14.568v7.942h-14.568v63.463h-9.188V67.42h-12.533v-7.942h12.533V32.964z"/>
			<path d="M950.799,59.478v71.405h-9.058v-12.273c-3.852,4.684-8.169,8.205-12.959,10.567c-4.793,2.363-10.033,3.546-15.72,3.546
				c-10.105,0-18.734-3.666-25.892-10.994c-7.151-7.33-10.729-16.244-10.729-26.744c0-10.28,3.607-19.075,10.827-26.381
				c7.221-7.308,15.902-10.961,26.055-10.961c5.861,0,11.167,1.246,15.915,3.741c4.749,2.493,8.915,6.234,12.502,11.221V59.478
				H950.799z M914.08,66.501c-5.113,0-9.833,1.258-14.159,3.771c-4.326,2.512-7.769,6.042-10.325,10.587
				c-2.558,4.545-3.834,9.352-3.834,14.421c0,5.026,1.289,9.836,3.868,14.422c2.576,4.589,6.041,8.162,10.39,10.719
				c4.349,2.558,9.015,3.834,13.993,3.834c5.028,0,9.79-1.269,14.293-3.802c4.501-2.534,7.964-5.965,10.391-10.291
				c2.423-4.329,3.637-9.201,3.637-14.619c0-8.26-2.72-15.165-8.16-20.716C928.73,69.277,922.032,66.501,914.08,66.501z"/>
			<path d="M974.655,30.077c2.09,0,3.875,0.744,5.354,2.231c1.484,1.487,2.225,3.281,2.225,5.381c0,2.057-0.739,3.83-2.225,5.315
				c-1.479,1.489-3.265,2.231-5.354,2.231c-2.05,0-3.814-0.742-5.294-2.231c-1.48-1.485-2.222-3.259-2.222-5.315
				c0-2.1,0.74-3.894,2.222-5.381C970.841,30.821,972.605,30.077,974.655,30.077z M970.091,59.478h9.188v71.405h-9.188V59.478z"/>
			<path d="M998.378,59.478h9.188v12.799c3.675-4.899,7.742-8.564,12.205-10.992c4.467-2.429,9.321-3.643,14.571-3.643
				c5.337,0,10.071,1.355,14.207,4.067c4.136,2.714,7.188,6.367,9.157,10.961c1.966,4.596,2.95,11.747,2.95,21.46v36.753h-9.187
				V96.822c0-8.228-0.343-13.717-1.021-16.473c-1.063-4.728-3.106-8.281-6.126-10.667c-3.02-2.383-6.959-3.575-11.816-3.575
				c-5.559,0-10.534,1.837-14.931,5.513c-4.398,3.676-7.298,8.226-8.699,13.649c-0.873,3.545-1.312,10.021-1.312,19.426v26.188
				h-9.188L998.378,59.478L998.378,59.478z"/>
			<path d="M1140.465,107.191l7.743,4.067c-2.54,4.987-5.476,9.015-8.804,12.076c-3.329,3.062-7.07,5.394-11.23,6.988
				c-4.162,1.597-8.871,2.397-14.124,2.397c-11.649,0-20.757-3.818-27.325-11.453c-6.57-7.637-9.854-16.266-9.854-25.892
				c0-9.058,2.782-17.13,8.344-24.218c7.049-9.012,16.487-13.519,28.311-13.519c12.175,0,21.896,4.616,29.166,13.847
				c5.168,6.52,7.794,14.659,7.883,24.413h-64.249c0.174,8.295,2.823,15.093,7.949,20.396c5.123,5.305,11.453,7.956,18.99,7.956
				c3.634,0,7.172-0.633,10.61-1.896c3.438-1.265,6.361-2.94,8.771-5.034C1135.053,115.234,1137.661,111.854,1140.465,107.191z
				 M1140.465,87.962c-1.229-4.899-3.014-8.816-5.357-11.748c-2.344-2.931-5.439-5.293-9.297-7.088
				c-3.854-1.793-7.907-2.69-12.154-2.69c-7.011,0-13.034,2.254-18.072,6.759c-3.678,3.283-6.46,8.204-8.344,14.768L1140.465,87.962
				L1140.465,87.962z"/>
			<path d="M1238.97,31.914v98.969h-9.056v-12.273c-3.853,4.684-8.172,8.205-12.961,10.567c-4.793,2.363-10.031,3.546-15.719,3.546
				c-10.106,0-18.736-3.666-25.89-10.994c-7.156-7.33-10.731-16.244-10.731-26.744c0-10.28,3.61-19.075,10.829-26.381
				c7.221-7.308,15.903-10.961,26.056-10.961c5.863,0,11.167,1.246,15.915,3.741c4.745,2.493,8.913,6.234,12.501,11.221v-40.69
				H1238.97z M1202.25,66.501c-5.109,0-9.829,1.258-14.159,3.771c-4.325,2.512-7.769,6.042-10.322,10.587
				c-2.557,4.545-3.836,9.352-3.836,14.421c0,5.026,1.289,9.836,3.868,14.422c2.579,4.589,6.041,8.162,10.389,10.719
				c4.35,2.558,9.015,3.834,13.997,3.834c5.025,0,9.789-1.269,14.29-3.802c4.5-2.534,7.963-5.965,10.39-10.291
				c2.427-4.329,3.641-9.201,3.641-14.619c0-8.26-2.722-15.165-8.163-20.716C1216.902,69.277,1210.204,66.501,1202.25,66.501z"/>
		</g>
	</g>
</g>
</svg>
