<?xml version="1.0" encoding="utf-8"?>
<!-- Generator: Adobe Illustrator 16.0.0, SVG Export Plug-In . SVG Version: 6.00 Build 0)  -->
<!DOCTYPE svg PUBLIC "-//W3C//DTD SVG 1.1//EN" "http://www.w3.org/Graphics/SVG/1.1/DTD/svg11.dtd">
<svg version="1.1" id="Layer_1" xmlns="http://www.w3.org/2000/svg" xmlns:xlink="http://www.w3.org/1999/xlink" x="0px" y="0px"
	 width="1280px" height="800px" viewBox="0 0 1280 800" enable-background="new 0 0 1280 800" xml:space="preserve">
<g id="Layer_1_1_">
	<g>
		<g>
			<g>
				<defs>
					<line id="SVGID_1_" x1="-73.649" y1="741.23" x2="-73.649" y2="149.331"/>
				</defs>
				<defs>
					<line id="SVGID_2_" x1="1991.248" y1="149.331" x2="1991.248" y2="741.23"/>
				</defs>
				<clipPath id="SVGID_3_">
					<use xlink:href="#SVGID_1_"  overflow="visible"/>
				</clipPath>
				<clipPath id="SVGID_4_" clip-path="url(#SVGID_3_)">
					<use xlink:href="#SVGID_2_"  overflow="visible"/>
				</clipPath>
				<path clip-path="url(#SVGID_4_)" fill="#BE2229" d="M-766.625,1338.891h3265.422V-356.496H-766.625V1338.891z"/>
			</g>
			<g>
				<defs>
					<line id="SVGID_5_" x1="-73.649" y1="741.23" x2="-73.649" y2="149.331"/>
				</defs>
				<defs>
					<line id="SVGID_6_" x1="1991.248" y1="149.331" x2="1991.248" y2="741.23"/>
				</defs>
				<clipPath id="SVGID_7_">
					<use xlink:href="#SVGID_5_"  overflow="visible"/>
				</clipPath>
				<clipPath id="SVGID_8_" clip-path="url(#SVGID_7_)">
					<use xlink:href="#SVGID_6_"  overflow="visible"/>
				</clipPath>
				<path clip-path="url(#SVGID_8_)" fill="#89181F" d="M-309.183,1238.539l21.262-21.274V-250.153l-21.262-21.273V1238.539z
					 M-663.359,1238.539l21.262-21.274V-250.153l-21.262-21.273V1238.539z M-486.282,1238.539l21.272-21.274V-250.153
					l-21.272-21.273V1238.539z M2459.334-271.425v1509.964l21.256-21.274V-250.153L2459.334-271.425z M66.264-250.153
					l-21.273-21.273 M44.991,1238.539l21.273-21.274"/>
			</g>
			<g>
				<defs>
					<line id="SVGID_9_" x1="-73.649" y1="741.23" x2="-73.649" y2="149.331"/>
				</defs>
				<defs>
					<line id="SVGID_10_" x1="1991.248" y1="149.331" x2="1991.248" y2="741.23"/>
				</defs>
				<clipPath id="SVGID_11_">
					<use xlink:href="#SVGID_9_"  overflow="visible"/>
				</clipPath>
				<clipPath id="SVGID_12_" clip-path="url(#SVGID_11_)">
					<use xlink:href="#SVGID_10_"  overflow="visible"/>
				</clipPath>
				<path clip-path="url(#SVGID_12_)" fill="#DC1F26" d="M-217.169,1217.265l21.263,21.274V-271.425l-21.263,21.273V1217.265z
					 M-394.256,1217.265l21.264,21.274V-271.425l-21.264,21.273V1217.265z M-571.345,1217.265l21.263,21.274V-271.425
					l-21.263,21.273V1217.265z M-748.427,1217.265l21.258,21.274V-271.425l-21.258,21.273V1217.265z M-40.081,1217.265
					l21.272,21.274V-271.425l-21.272,21.273V1217.265z M2374.261-250.153v1467.418l21.265,21.274V-271.425L2374.261-250.153z"/>
			</g>
			<g>
				<defs>
					<line id="SVGID_13_" x1="-73.649" y1="741.23" x2="-73.649" y2="149.331"/>
				</defs>
				<defs>
					<line id="SVGID_14_" x1="1991.248" y1="149.331" x2="1991.248" y2="741.23"/>
				</defs>
				<clipPath id="SVGID_15_">
					<use xlink:href="#SVGID_13_"  overflow="visible"/>
				</clipPath>
				<clipPath id="SVGID_16_" clip-path="url(#SVGID_15_)">
					<use xlink:href="#SVGID_14_"  overflow="visible"/>
				</clipPath>
			</g>
			<g>
				<defs>
					<line id="SVGID_17_" x1="-73.649" y1="741.23" x2="-73.649" y2="149.331"/>
				</defs>
				<defs>
					<line id="SVGID_18_" x1="1991.248" y1="149.331" x2="1991.248" y2="741.23"/>
				</defs>
				<clipPath id="SVGID_19_">
					<use xlink:href="#SVGID_17_"  overflow="visible"/>
				</clipPath>
				<clipPath id="SVGID_20_" clip-path="url(#SVGID_19_)">
					<use xlink:href="#SVGID_18_"  overflow="visible"/>
				</clipPath>
			</g>
			<g>
				<defs>
					<line id="SVGID_21_" x1="-73.649" y1="741.23" x2="-73.649" y2="149.331"/>
				</defs>
				<defs>
					<line id="SVGID_22_" x1="1991.248" y1="149.331" x2="1991.248" y2="741.23"/>
				</defs>
				<clipPath id="SVGID_23_">
					<use xlink:href="#SVGID_21_"  overflow="visible"/>
				</clipPath>
				<clipPath id="SVGID_24_" clip-path="url(#SVGID_23_)">
					<use xlink:href="#SVGID_22_"  overflow="visible"/>
				</clipPath>
			</g>
			<g>
				<defs>
					<line id="SVGID_25_" x1="-73.649" y1="741.23" x2="-73.649" y2="149.331"/>
				</defs>
				<defs>
					<line id="SVGID_26_" x1="1991.248" y1="149.331" x2="1991.248" y2="741.23"/>
				</defs>
				<clipPath id="SVGID_27_">
					<use xlink:href="#SVGID_25_"  overflow="visible"/>
				</clipPath>
				<clipPath id="SVGID_28_" clip-path="url(#SVGID_27_)">
					<use xlink:href="#SVGID_26_"  overflow="visible"/>
				</clipPath>
			</g>
			<g>
				<defs>
					<line id="SVGID_29_" x1="-73.649" y1="741.23" x2="-73.649" y2="149.331"/>
				</defs>
				<defs>
					<line id="SVGID_30_" x1="1991.248" y1="149.331" x2="1991.248" y2="741.23"/>
				</defs>
				<clipPath id="SVGID_31_">
					<use xlink:href="#SVGID_29_"  overflow="visible"/>
				</clipPath>
				<clipPath id="SVGID_32_" clip-path="url(#SVGID_31_)">
					<use xlink:href="#SVGID_30_"  overflow="visible"/>
				</clipPath>
			</g>
			<g>
				<defs>
					<line id="SVGID_33_" x1="-73.649" y1="741.23" x2="-73.649" y2="149.331"/>
				</defs>
				<defs>
					<line id="SVGID_34_" x1="1991.248" y1="149.331" x2="1991.248" y2="741.23"/>
				</defs>
				<clipPath id="SVGID_35_">
					<use xlink:href="#SVGID_33_"  overflow="visible"/>
				</clipPath>
				<clipPath id="SVGID_36_" clip-path="url(#SVGID_35_)">
					<use xlink:href="#SVGID_34_"  overflow="visible"/>
				</clipPath>
			</g>
			<g>
				<defs>
					<line id="SVGID_37_" x1="-73.649" y1="741.23" x2="-73.649" y2="149.331"/>
				</defs>
				<defs>
					<line id="SVGID_38_" x1="1991.248" y1="149.331" x2="1991.248" y2="741.23"/>
				</defs>
				<clipPath id="SVGID_39_">
					<use xlink:href="#SVGID_37_"  overflow="visible"/>
				</clipPath>
				<clipPath id="SVGID_40_" clip-path="url(#SVGID_39_)">
					<use xlink:href="#SVGID_38_"  overflow="visible"/>
				</clipPath>
			</g>
			<g>
				<defs>
					<line id="SVGID_41_" x1="-73.649" y1="741.23" x2="-73.649" y2="149.331"/>
				</defs>
				<defs>
					<line id="SVGID_42_" x1="1991.248" y1="149.331" x2="1991.248" y2="741.23"/>
				</defs>
				<clipPath id="SVGID_43_">
					<use xlink:href="#SVGID_41_"  overflow="visible"/>
				</clipPath>
				<clipPath id="SVGID_44_" clip-path="url(#SVGID_43_)">
					<use xlink:href="#SVGID_42_"  overflow="visible"/>
				</clipPath>
			</g>
			<g>
				<defs>
					<line id="SVGID_45_" x1="-73.649" y1="741.23" x2="-73.649" y2="149.331"/>
				</defs>
				<defs>
					<line id="SVGID_46_" x1="1991.248" y1="149.331" x2="1991.248" y2="741.23"/>
				</defs>
				<clipPath id="SVGID_47_">
					<use xlink:href="#SVGID_45_"  overflow="visible"/>
				</clipPath>
				<clipPath id="SVGID_48_" clip-path="url(#SVGID_47_)">
					<use xlink:href="#SVGID_46_"  overflow="visible"/>
				</clipPath>
			</g>
			<g>
				<defs>
					<line id="SVGID_49_" x1="-73.649" y1="741.23" x2="-73.649" y2="149.331"/>
				</defs>
				<defs>
					<line id="SVGID_50_" x1="1991.248" y1="149.331" x2="1991.248" y2="741.23"/>
				</defs>
				<clipPath id="SVGID_51_">
					<use xlink:href="#SVGID_49_"  overflow="visible"/>
				</clipPath>
				<clipPath id="SVGID_52_" clip-path="url(#SVGID_51_)">
					<use xlink:href="#SVGID_50_"  overflow="visible"/>
				</clipPath>
			</g>
			<g>
				<defs>
					<line id="SVGID_53_" x1="-73.649" y1="741.23" x2="-73.649" y2="149.331"/>
				</defs>
				<defs>
					<line id="SVGID_54_" x1="1991.248" y1="149.331" x2="1991.248" y2="741.23"/>
				</defs>
				<clipPath id="SVGID_55_">
					<use xlink:href="#SVGID_53_"  overflow="visible"/>
				</clipPath>
				<clipPath id="SVGID_56_" clip-path="url(#SVGID_55_)">
					<use xlink:href="#SVGID_54_"  overflow="visible"/>
				</clipPath>
			</g>
			<g>
				<defs>
					<line id="SVGID_57_" x1="-73.649" y1="741.23" x2="-73.649" y2="149.331"/>
				</defs>
				<defs>
					<line id="SVGID_58_" x1="1991.248" y1="149.331" x2="1991.248" y2="741.23"/>
				</defs>
				<clipPath id="SVGID_59_">
					<use xlink:href="#SVGID_57_"  overflow="visible"/>
				</clipPath>
				<clipPath id="SVGID_60_" clip-path="url(#SVGID_59_)">
					<use xlink:href="#SVGID_58_"  overflow="visible"/>
				</clipPath>
			</g>
		</g>
		
			<text transform="matrix(1 0 0 1 113.5029 549.2012)" display="none" fill="#FFFFFF" enable-background="new    " font-family="'CenturyGothic-Bold'" font-size="292.7729">CONTAINED</text>
		
			<rect x="59.549" y="260.133" display="none" fill="none" stroke="#FFFFFF" stroke-width="4" stroke-miterlimit="10" width="1806.965" height="375.583"/>
	</g>
</g>
<rect x="-563.5" y="-5.5" fill="#161616" width="2576" height="815"/>
<rect x="-563.5" y="-5.5" fill="#161616" width="2576" height="815"/>
<line fill="#2D2D2D" x1="1195.93" y1="-451.038" x2="1195.93" y2="1329.943"/>
<line fill="#2D2D2D" x1="1221.736" y1="1355.761" x2="1221.736" y2="-476.856"/>
<line x1="1092.68" y1="-476.856" x2="1092.68" y2="1355.761"/>
<line x1="1118.484" y1="1329.943" x2="1118.484" y2="-451.038"/>
<line fill="#2D2D2D" x1="989.435" y1="-451.038" x2="989.435" y2="1329.943"/>
<line fill="#2D2D2D" x1="1015.235" y1="1355.761" x2="1015.235" y2="-476.856"/>
<line x1="886.182" y1="-476.856" x2="886.182" y2="1355.761"/>
<line x1="911.981" y1="1329.943" x2="911.981" y2="-451.038"/>
<line fill="#2D2D2D" x1="782.932" y1="-451.038" x2="782.932" y2="1329.943"/>
<line fill="#2D2D2D" x1="808.739" y1="1355.761" x2="808.739" y2="-476.856"/>
<line x1="679.675" y1="-476.856" x2="679.675" y2="1355.761"/>
<line x1="705.48" y1="1329.943" x2="705.48" y2="-451.038"/>
<line fill="#2D2D2D" x1="576.437" y1="-451.038" x2="576.437" y2="1329.943"/>
<line fill="#2D2D2D" x1="602.237" y1="1355.761" x2="602.237" y2="-476.856"/>
<line x1="473.179" y1="-476.856" x2="473.179" y2="1355.761"/>
<line x1="498.986" y1="1329.943" x2="498.986" y2="-451.038"/>
<line fill="#2D2D2D" x1="369.935" y1="-451.038" x2="369.935" y2="1329.943"/>
<line fill="#2D2D2D" x1="395.742" y1="1355.761" x2="395.742" y2="-476.856"/>
<line x1="266.678" y1="-476.856" x2="266.678" y2="1355.761"/>
<line x1="292.49" y1="1329.943" x2="292.49" y2="-451.038"/>
<line fill="#2D2D2D" x1="163.433" y1="-451.038" x2="163.433" y2="1329.943"/>
<line fill="#2D2D2D" x1="189.239" y1="1355.761" x2="189.239" y2="-476.856"/>
<line x1="60.182" y1="-476.856" x2="60.182" y2="1355.761"/>
<line x1="85.99" y1="1329.943" x2="85.99" y2="-451.038"/>
<rect x="-527.635" y="33.809" fill="none" width="2506.133" height="718.378"/>
<g>
	<polygon points="-19.833,58.148 61.129,58.148 85.461,33.809 -44.165,33.809 	"/>
	<polygon points="187.49,58.148 268.452,58.148 292.778,33.809 163.157,33.809 	"/>
	<polygon points="393.547,58.148 474.515,58.148 498.841,33.809 369.22,33.809 	"/>
	<polygon points="600.876,58.148 681.838,58.148 706.165,33.809 576.542,33.809 	"/>
	<polygon points="600.876,58.148 681.838,58.148 706.165,33.809 576.542,33.809 	"/>
	<polygon points="808.205,58.148 889.16,58.148 913.486,33.809 783.865,33.809 	"/>
	<polygon points="808.205,58.148 889.16,58.148 913.486,33.809 783.865,33.809 	"/>
	<polygon points="1015.529,58.148 1096.492,58.148 1120.812,33.809 991.189,33.809 	"/>
	<polygon points="1015.529,58.148 1096.492,58.148 1120.812,33.809 991.189,33.809 	"/>
	<polygon points="1222.858,58.148 1303.813,58.148 1328.142,33.809 1198.514,33.809 	"/>
	<polygon points="1222.858,58.148 1303.813,58.148 1328.142,33.809 1198.514,33.809 	"/>
</g>
<polygon fill="#474747" points="-44.165,752.187 85.461,752.187 61.129,727.849 -19.833,727.849 "/>
<polygon fill="#474747" points="163.157,752.187 292.778,752.187 268.452,727.849 187.49,727.849 "/>
<polygon fill="#474747" points="369.22,752.187 498.841,752.187 474.515,727.849 393.547,727.849 "/>
<polygon fill="#474747" points="576.542,752.187 706.165,752.187 681.838,727.849 600.876,727.849 "/>
<polygon fill="#474747" points="576.542,752.187 706.165,752.187 681.838,727.849 600.876,727.849 "/>
<polygon fill="#474747" points="783.865,752.187 913.486,752.187 889.16,727.849 808.205,727.849 "/>
<polygon fill="#474747" points="783.865,752.187 913.486,752.187 889.16,727.849 808.205,727.849 "/>
<polygon fill="#474747" points="991.189,752.187 1120.812,752.187 1096.492,727.849 1015.529,727.849 "/>
<polygon fill="#474747" points="991.189,752.187 1120.812,752.187 1096.492,727.849 1015.529,727.849 "/>
<polygon fill="#474747" points="1198.514,752.187 1328.142,752.187 1303.813,727.849 1222.858,727.849 "/>
<polygon fill="#474747" points="1198.514,752.187 1328.142,752.187 1303.813,727.849 1222.858,727.849 "/>
</svg>
